<svg xmlns="http://www.w3.org/2000/svg" width="32" height="32" viewBox="0 0 32 32">
    <g fill="#017BAC" fill-rule="evenodd">
        <path d="M16.014 20.76c-2.7 0-4.896-2.167-4.896-4.829s2.197-4.828 4.896-4.828c2.7 0 4.895 2.166 4.895 4.828 0 2.662-2.196 4.83-4.895 4.83zm-.016-11.025c-3.447 0-6.256 2.772-6.256 6.18 0 3.407 2.809 6.176 6.256 6.176 3.452 0 6.26-2.77 6.26-6.177 0-3.407-2.808-6.179-6.26-6.179zm14.253 7.242c0 .078-.29.326-.778.439l-2.576.635-.85.21-.272.824c-.16.483-.368.974-.616 1.456l-.4.772.453.745 1.393 2.294c.252.397.279.777.224.832l-1.404 1.388c-.068.067-.228.072-.276.072a1.08 1.08 0 0 1-.567-.168l-.024-.017-.027-.018-2.234-1.407-.771-.487-.81.416a10.3 10.3 0 0 1-1.55.643l-.864.277-.194.875-.573 2.554-.012.06c-.061.324-.36.655-.53.655h-1.981c-.08 0-.332-.289-.445-.772l-.634-2.507-.216-.85-.844-.265a10.33 10.33 0 0 1-1.68-.7l-.814-.423-.776.49-2.292 1.442-.025.017-.025.018c-.15.1-.37.168-.567.168-.046 0-.206-.006-.277-.077l-1.4-1.383c-.055-.056-.03-.435.236-.857l1.45-2.39.447-.734-.387-.769a9.793 9.793 0 0 1-.564-1.349l-.272-.825-.852-.21-2.603-.643c-.459-.105-.75-.353-.75-.43v-1.961c0-.17.331-.465.66-.524l.035-.006.03-.007 2.54-.557.896-.198.273-.861a10.1 10.1 0 0 1 .606-1.459l.388-.768-.448-.737L5.239 7.49c-.25-.395-.278-.777-.223-.832l1.4-1.384c.07-.067.218-.074.278-.074.197 0 .418.065.567.165l.024.019.027.016L9.6 6.839l.775.489.815-.425c.54-.281 1.103-.516 1.673-.694l.84-.266.215-.848.643-2.543c.104-.455.36-.742.437-.742h1.98c.172 0 .472.329.53.654l.005.033.007.03.571 2.545.197.875.863.275c.528.169 1.056.39 1.57.654l.812.415.77-.486 2.229-1.406.027-.016.024-.018c.148-.1.371-.165.567-.165.048 0 .207.004.278.074l1.4 1.382c.057.056.03.44-.237.858L25.214 9.78l-.452.748.4.774c.28.542.492 1.054.654 1.557l.274.868.894.196 2.543.558.03.009.033.004c.327.059.663.355.663.523v1.961h-.002zm-.596-3.98l-2.504-.55a11.231 11.231 0 0 0-.745-1.776l1.355-2.231c.507-.8.761-1.976 0-2.73l-1.38-1.365c-.372-.368-.871-.522-1.375-.522-.523 0-1.052.169-1.446.44l-2.197 1.383a11.653 11.653 0 0 0-1.783-.74l-.56-2.505c-.169-.92-.981-1.915-2.058-1.915h-1.95c-1.078 0-1.738 1.01-1.95 1.93l-.627 2.475c-.66.207-1.296.474-1.9.79l-2.25-1.417a2.624 2.624 0 0 0-1.448-.44c-.502 0-1.003.154-1.376.522L4.082 5.71c-.762.754-.505 1.93 0 2.73l1.425 2.348a11.47 11.47 0 0 0-.688 1.658l-2.501.55c-.93.166-1.936.969-1.936 2.035v1.93c0 1.064 1.021 1.718 1.95 1.929l2.534.624c.175.533.393 1.044.64 1.539l-1.425 2.35c-.505.799-.76 1.974 0 2.728l1.38 1.364c.372.369.873.526 1.376.526.524 0 1.052-.169 1.447-.44l2.255-1.423c.609.317 1.247.588 1.911.795l.625 2.47c.213.919.872 1.928 1.95 1.928h1.95c1.077 0 1.89-.994 2.058-1.914l.56-2.512a11.663 11.663 0 0 0 1.765-.731l2.2 1.386c.394.272.923.44 1.447.44.504 0 1.003-.157 1.375-.526l1.38-1.364c.76-.754.507-1.93 0-2.728l-1.356-2.233c.273-.531.509-1.082.7-1.656l2.534-.624c.93-.21 1.95-.864 1.95-1.93v-1.929c.003-1.065-1.003-1.868-1.933-2.035z"/>
        <path d="M16.014 11.48c-2.489 0-4.514 1.997-4.514 4.451 0 2.455 2.025 4.452 4.514 4.452 2.488 0 4.513-1.997 4.513-4.452 0-2.454-2.025-4.45-4.513-4.45zm0 9.659c-2.91 0-5.278-2.336-5.278-5.208 0-2.87 2.368-5.206 5.278-5.206 2.91 0 5.277 2.335 5.277 5.206 0 2.872-2.367 5.208-5.277 5.208zm-.016-11.026c-3.238 0-5.873 2.603-5.873 5.801s2.635 5.8 5.873 5.8c3.24 0 5.877-2.602 5.877-5.8s-2.636-5.801-5.877-5.801zm0 12.356c-3.66 0-6.638-2.94-6.638-6.555 0-3.615 2.978-6.557 6.638-6.557 3.662 0 6.642 2.942 6.642 6.557s-2.98 6.555-6.642 6.555zm-.853 7.18h1.791a.678.678 0 0 0 .211-.346l.015-.073.814-3.64 1.072-.343a9.896 9.896 0 0 0 1.492-.62l1.005-.517 3.257 2.057c.1.065.277.11.394.096l1.269-1.253a1.244 1.244 0 0 0-.183-.457l-1.96-3.225.497-.96c.24-.468.44-.94.592-1.4l.34-1.023 3.63-.896c.246-.057.41-.15.49-.206v-1.77a.693.693 0 0 0-.34-.205l-.1-.02-3.64-.8-.34-1.076a9.73 9.73 0 0 0-.63-1.499l-.496-.96 1.938-3.193a1.35 1.35 0 0 0 .2-.488L25.197 5.58a.715.715 0 0 0-.391.09l-.076.051-3.177 2.005-1.009-.515a9.95 9.95 0 0 0-1.511-.63l-1.072-.341-.832-3.718a.653.653 0 0 0-.207-.335H15.13a1.215 1.215 0 0 0-.196.447L14.02 6.24l-1.041.33a9.887 9.887 0 0 0-1.612.67l-1.012.526L7.038 5.67a.717.717 0 0 0-.39-.091L5.38 6.832c.015.094.06.263.183.456l2.022 3.332-.48.954c-.252.5-.443.96-.584 1.403l-.34 1.07-3.728.818a.675.675 0 0 0-.35.206v1.774c.078.056.232.144.455.195l3.667.905.337 1.024c.141.428.319.853.543 1.298l.481.954-.556.913-1.45 2.388a1.354 1.354 0 0 0-.198.489l1.268 1.253a.66.66 0 0 0 .395-.1l.061-.041 3.254-2.05 1.01.525c.54.28 1.083.507 1.618.674l1.048.33.902 3.56c.057.245.15.407.207.487zm1.848.756h-1.981c-.417 0-.717-.637-.818-1.065l-.796-3.146-.64-.2a10.699 10.699 0 0 1-1.743-.726l-.618-.321-2.918 1.84a1.473 1.473 0 0 1-.785.236c-.134 0-.384-.024-.548-.188l-1.4-1.383c-.293-.298-.05-.955.183-1.325l1.785-2.94-.293-.583c-.241-.479-.433-.937-.585-1.4l-.207-.627-3.25-.802c-.398-.091-1.04-.39-1.04-.798v-1.96c0-.407.525-.816.975-.896l.054-.01 3.216-.707.207-.653c.154-.482.36-.977.629-1.514l.294-.583-1.803-2.97c-.217-.343-.459-1.004-.165-1.294l1.4-1.384c.124-.123.309-.185.548-.185.275 0 .567.086.782.23l.035.025 2.881 1.815.619-.322a10.653 10.653 0 0 1 1.736-.72l.636-.202.806-3.187c.09-.393.39-1.029.808-1.029h1.98c.414 0 .827.52.906.968l.01.05.72 3.205.655.209c.543.173 1.091.401 1.628.677l.616.315 2.854-1.803c.211-.142.511-.23.783-.23.24 0 .423.062.547.183l1.4 1.384c.3.29.056.952-.182 1.327L25.2 10.542l.303.588c.286.555.508 1.083.678 1.615l.209.66 3.27.717c.45.081.976.49.976.895v2.34h-.195c-.223.21-.597.361-.88.427l-3.215.793-.207.626c-.165.497-.38 1.005-.638 1.509l-.304.586 1.737 2.86c.216.34.457.999.17 1.29l-1.408 1.391c-.155.152-.382.184-.546.184-.27 0-.571-.09-.784-.236l-.045-.03-2.814-1.774-.614.316c-.524.269-1.066.493-1.609.667l-.655.21-.147.663-.583 2.605c-.083.443-.497.961-.905.961zm-6.472-4.683l.197.102c.607.318 1.229.576 1.847.77l.204.063.677 2.674c.19.822.751 1.643 1.58 1.643h1.95c.857 0 1.54-.832 1.68-1.603l.003-.015.609-2.723.208-.067a11.32 11.32 0 0 0 1.706-.707l.195-.1 2.4 1.512c.337.233.796.372 1.228.372.313 0 .759-.072 1.104-.415l1.381-1.364c.585-.58.395-1.553-.054-2.26l-1.469-2.42.096-.186c.272-.53.5-1.068.677-1.602l.066-.198 2.74-.675c.83-.188 1.66-.743 1.66-1.562v-1.93c.002-.848-.839-1.523-1.619-1.663l-.014-.003-2.72-.596-.067-.209a10.799 10.799 0 0 0-.72-1.717l-.097-.187 1.465-2.41c.452-.715.642-1.689.057-2.268l-1.38-1.365c-.344-.34-.79-.412-1.105-.412-.43 0-.89.14-1.228.372l-.013.009-2.383 1.5-.195-.1a11.299 11.299 0 0 0-1.724-.716l-.209-.066-.611-2.732c-.14-.771-.823-1.604-1.68-1.604h-1.951c-.828 0-1.39.822-1.578 1.636l-.68 2.688-.203.064a11.2 11.2 0 0 0-1.837.763l-.196.102-2.45-1.543a2.224 2.224 0 0 0-1.23-.372c-.315 0-.762.071-1.107.412L4.353 5.978c-.585.579-.395 1.553.053 2.262l1.536 2.532-.093.185a11.093 11.093 0 0 0-.665 1.603l-.066.209-2.732.6c-.78.14-1.622.815-1.622 1.663v1.93c0 .818.831 1.373 1.654 1.56l2.745.677.066.199c.162.49.365.977.62 1.488l.093.185-1.533 2.527c-.451.714-.642 1.687-.057 2.267l1.38 1.363c.345.344.792.416 1.106.416.43 0 .888-.14 1.228-.373l.012-.008 2.443-1.541zm6.455 6.009h-1.95c-.9 0-1.968-.688-2.324-2.223l-.571-2.26a12.024 12.024 0 0 1-1.572-.653l-2.063 1.302a3.007 3.007 0 0 1-1.658.503c-.649 0-1.234-.226-1.648-.637l-1.38-1.364c-.634-.63-.897-1.862-.053-3.196l1.315-2.168a11.71 11.71 0 0 1-.502-1.203l-2.33-.575C.695 18.907 0 17.851 0 16.961v-1.929c0-1.251 1.138-2.205 2.242-2.407l2.282-.5c.145-.423.326-.858.548-1.317L3.754 8.635c-.56-.887-.884-2.26.058-3.191L5.19 4.079c.414-.409.999-.633 1.647-.633.585 0 1.19.183 1.658.502l2.06 1.296a11.97 11.97 0 0 1 1.56-.647l.574-2.273C13.045.795 14.112.108 15.012.108h1.95c1.266 0 2.23 1.126 2.432 2.218l.513 2.289c.477.162.958.362 1.434.596l2.007-1.263a3.002 3.002 0 0 1 1.658-.503c.648 0 1.233.225 1.645.633l1.38 1.365c.636.63.9 1.863.054 3.197l-1.242 2.047c.242.486.441.96.604 1.437l2.284.501c1.105.202 2.242 1.155 2.24 2.407v1.929c0 .89-.696 1.945-2.248 2.298l-2.325.572c-.155.442-.343.884-.559 1.322l1.249 2.055c.842 1.328.578 2.56-.057 3.19l-1.38 1.365c-.414.41-.999.636-1.646.636a2.998 2.998 0 0 1-1.659-.503l-2.01-1.266a12.1 12.1 0 0 1-1.416.587l-.513 2.296c-.202 1.091-1.165 2.218-2.431 2.218z"/>
    </g>
</svg>
